<mxfile host="app.diagrams.net" modified="2024-05-17T02:01:16.027Z" agent="Mozilla/5.0 (Windows NT 10.0; Win64; x64) AppleWebKit/537.36 (KHTML, like Gecko) Chrome/124.0.0.0 Safari/537.36" etag="x6Qq1RD1DAvzegFV_Fqk" version="24.4.3" type="device">
  <diagram name="Page-1" id="2H3ucLLlLxaZYPlv5m7b">
    <mxGraphModel dx="2955" dy="1720" grid="1" gridSize="10" guides="1" tooltips="1" connect="1" arrows="1" fold="1" page="0" pageScale="1" pageWidth="1100" pageHeight="850" math="0" shadow="0">
      <root>
        <mxCell id="0" />
        <mxCell id="1" parent="0" />
        <mxCell id="IBoaQFAoObtHSYrLT33a-3" value="PAYMENTS" style="swimlane;fontStyle=0;childLayout=stackLayout;horizontal=1;startSize=30;horizontalStack=0;resizeParent=1;resizeParentMax=0;resizeLast=0;collapsible=1;marginBottom=0;whiteSpace=wrap;html=1;" vertex="1" parent="1">
          <mxGeometry x="-2000" y="-1000" width="190" height="180" as="geometry" />
        </mxCell>
        <mxCell id="IBoaQFAoObtHSYrLT33a-17" value="CUSTOMERS" style="swimlane;fontStyle=0;childLayout=stackLayout;horizontal=1;startSize=30;horizontalStack=0;resizeParent=1;resizeParentMax=0;resizeLast=0;collapsible=1;marginBottom=0;whiteSpace=wrap;html=1;" vertex="1" parent="1">
          <mxGeometry x="-1720" y="-920" width="190" height="180" as="geometry" />
        </mxCell>
        <mxCell id="IBoaQFAoObtHSYrLT33a-18" value="EMPLOYEES" style="swimlane;fontStyle=0;childLayout=stackLayout;horizontal=1;startSize=30;horizontalStack=0;resizeParent=1;resizeParentMax=0;resizeLast=0;collapsible=1;marginBottom=0;whiteSpace=wrap;html=1;" vertex="1" parent="1">
          <mxGeometry x="-1390" y="-920" width="190" height="180" as="geometry" />
        </mxCell>
        <mxCell id="IBoaQFAoObtHSYrLT33a-21" value="" style="edgeStyle=entityRelationEdgeStyle;fontSize=12;html=1;endArrow=ERoneToMany;rounded=0;startSize=8;endSize=8;curved=0;entryX=1;entryY=0.5;entryDx=0;entryDy=0;exitX=0;exitY=0.5;exitDx=0;exitDy=0;" edge="1" parent="1" source="IBoaQFAoObtHSYrLT33a-17" target="IBoaQFAoObtHSYrLT33a-3">
          <mxGeometry width="100" height="100" relative="1" as="geometry">
            <mxPoint x="-1790" y="-740" as="sourcePoint" />
            <mxPoint x="-1600" y="-740" as="targetPoint" />
            <Array as="points">
              <mxPoint x="-1750" y="-750" />
              <mxPoint x="-1680" y="-760" />
              <mxPoint x="-1730" y="-750" />
            </Array>
          </mxGeometry>
        </mxCell>
        <mxCell id="IBoaQFAoObtHSYrLT33a-24" value="" style="edgeStyle=entityRelationEdgeStyle;fontSize=12;html=1;endArrow=ERzeroToMany;endFill=1;startArrow=ERzeroToMany;rounded=0;startSize=8;endSize=8;curved=0;exitX=1;exitY=0.5;exitDx=0;exitDy=0;entryX=0;entryY=0.5;entryDx=0;entryDy=0;" edge="1" parent="1" source="IBoaQFAoObtHSYrLT33a-17" target="IBoaQFAoObtHSYrLT33a-18">
          <mxGeometry width="100" height="100" relative="1" as="geometry">
            <mxPoint x="-1480" y="-650" as="sourcePoint" />
            <mxPoint x="-1380" y="-750" as="targetPoint" />
          </mxGeometry>
        </mxCell>
        <mxCell id="IBoaQFAoObtHSYrLT33a-25" value="OFFICES" style="swimlane;fontStyle=0;childLayout=stackLayout;horizontal=1;startSize=30;horizontalStack=0;resizeParent=1;resizeParentMax=0;resizeLast=0;collapsible=1;marginBottom=0;whiteSpace=wrap;html=1;" vertex="1" parent="1">
          <mxGeometry x="-1390" y="-640" width="190" height="180" as="geometry" />
        </mxCell>
      </root>
    </mxGraphModel>
  </diagram>
</mxfile>
